<?xml version="1.0" encoding="UTF-8" standalone="no"?>
<svg width="217px" height="567px" viewBox="0 0 217 567" version="1.1" xmlns="http://www.w3.org/2000/svg" xmlns:xlink="http://www.w3.org/1999/xlink" xmlns:sketch="http://www.bohemiancoding.com/sketch/ns">
    <!-- Generator: Sketch 3.4.2 (15855) - http://www.bohemiancoding.com/sketch -->
    <title>bottle</title>
    <desc>Created with Sketch.</desc>
    <defs></defs>
    <g id="Welcome" stroke="none" stroke-width="1" fill="none" fill-rule="evenodd" sketch:type="MSPage">
        <g id="Desktop" sketch:type="MSArtboardGroup" transform="translate(-415.000000, -204.000000)" stroke="#000000" stroke-width="5">
            <path d="M531.865658,756.947615 C495.791016,756.947632 498.713433,755.94765 482.982422,755.947632 C455.908203,749.191406 451.734013,740.171875 451.734013,740.171875 C451.734013,740.171875 451.734013,563.240234 451.734013,473.705309 C457.986328,420.105469 476.259766,446.783203 487.956741,384.775858 C498.582207,280.140625 495.791016,272.035156 495.791016,272.035156 L493.85032,266.578803 L500.755372,259.278175 L496.269531,254.412109 C496.269531,254.412109 495.791016,240.017579 495.791016,222.65625 C512,215.361328 526.799832,216.710938 526.799832,216.710938 C526.799832,216.710938 541.59967,215.361328 557.808655,222.65625 C557.808655,240.017579 557.33014,254.412109 557.33014,254.412109 L552.844299,259.278175 L559.749351,266.578803 L557.808655,272.035156 C557.808655,272.035156 555.017464,280.140625 565.64293,384.775858 C577.339905,446.783203 595.613343,420.105469 601.865658,473.705309 C601.865658,563.240234 601.865658,740.171875 601.865658,740.171875 C601.865658,740.171875 597.691468,749.191406 570.617249,755.947632 C555.833173,755.947649 557.524413,756.830867 527.837256,756.937184 C525.935764,756.943993 523.905541,756.947616 521.734013,756.947615" id="Path-3" sketch:type="MSShapeGroup"></path>
        </g>
    </g>
</svg>